<svg width="558" height="558" xmlns="http://www.w3.org/2000/svg">
 <g>
  <title>Layer 1</title>
  <g id="svg_1">
   <g id="svg_2">
    <path fill="#4a4a4a" d="m479.91989,190.31306l-21.51364,-21.51366l-67.85074,-67.85107l-21.51367,-21.51349l-79.435,-79.43484l-21.51364,0l-79.43504,79.43484l-21.51364,21.51349l-67.85075,67.85107l-21.51366,21.51366l-77.78011,77.78014l0,21.51364l77.78011,77.78012l21.51366,21.51364l67.85075,67.85074l21.51364,21.51364l79.43504,79.43503l21.51364,0l79.435,-79.43503l21.51367,-21.51364l67.85074,-67.85074l21.51364,-21.51364l77.78012,-77.78012l0,-21.51364l-77.78012,-77.78014zm-130.73679,-89.36473l21.51364,21.51349l67.85074,67.85124l21.51364,21.51364l19.85876,19.85876l-28.13324,-13.23918l-28.13324,-13.23917l-43.02728,-21.51364l-23.16855,-47.99281l-13.2392,-28.13242l-11.58426,-23.16888l16.54898,16.54897l0,0zm4.96466,147.28609l0,61.23119l-43.02731,43.02725l-61.23112,0l-43.02731,-43.02725l0,-61.23119l43.02731,-43.0273l61.23112,0l43.02731,43.0273zm-72.81543,-203.55206l41.37241,84.39936l-41.37241,41.37259l-41.37239,-41.37259l41.37239,-84.39936zm-178.72878,165.48945l21.51365,-21.51366l67.85075,-67.8509l21.51364,-21.51349l18.20387,-18.20352l-11.58427,23.16805l-13.23918,28.1334l-21.51364,44.68219l-46.33727,23.16856l-28.13307,13.23915l-21.51381,11.58429l13.23933,-14.89407l0,0zm-56.26647,67.85074l82.74482,-39.71751l39.7175,39.71751l-39.7175,39.71753l-82.74482,-39.71753zm165.48961,178.72879l-21.51364,-21.51367l-67.85091,-67.85071l-21.51332,-21.51367l-16.54896,-16.54895l21.51332,11.58429l28.13356,13.23914l46.33693,23.16855l21.51364,44.68222l13.23918,28.13324l11.58426,23.16855l-14.89406,-16.54898l0,0zm69.50563,56.26648l-41.37239,-84.39972l41.37239,-41.37241l41.37241,41.37241l-41.37241,84.39972zm177.07391,-167.14453l-21.51367,21.51199l-67.85074,67.85239l-21.51364,21.51367l-18.20386,18.20386l11.58429,-23.16855l13.23914,-28.13324l23.16855,-47.99197l43.02731,-21.51367l28.13324,-13.23914l28.13321,-13.2392l-18.20383,18.20386l0,0l0,0zm-28.13324,-28.13321l-39.7175,-39.71753l39.7175,-39.71751l79.435,39.71751l-79.435,39.71753z" id="logo"/>
   </g>
  </g>
 </g>
</svg>
