<svg xmlns="http://www.w3.org/2000/svg" width="558" height="2233">
  <rect id="backgroundrect" width="100%" height="100%" x="0" y="0" fill="none" stroke="none" class=""/>
  <g class="currentLayer">
    <title>Layer 1</title>
    <g id="svg_1" class="" fill-opacity="1" fill="#636c72">
      <g id="svg_2" fill="#636c72">
        <path fill="#636c72"
              d="m480.334409906044,748.5513485217666 l-21.51364,-21.51366 l-67.85074,-67.85107 l-21.51367,-21.51349 l-79.435,-79.43484 l-21.51364,0 l-79.43504,79.43484 l-21.51364,21.51349 l-67.85075,67.85107 l-21.51366,21.51366 l-77.78011,77.78014 l0,21.51364 l77.78011,77.78012 l21.51366,21.51364 l67.85075,67.85074 l21.51364,21.51364 l79.43504,79.43503 l21.51364,0 l79.435,-79.43503 l21.51367,-21.51364 l67.85074,-67.85074 l21.51364,-21.51364 l77.78012,-77.78012 l0,-21.51364 l-77.78012,-77.78014 zm-130.73679,-89.36473 l21.51364,21.51349 l67.85074,67.85124 l21.51364,21.51364 l19.85876,19.85876 l-28.13324,-13.23918 l-28.13324,-13.23917 l-43.02728,-21.51364 l-23.16855,-47.99281 l-13.2392,-28.13242 l-11.58426,-23.16888 l16.54898,16.54897 l0,0 zm4.96466,147.28609 l0,61.23119 l-43.02731,43.02725 l-61.23112,0 l-43.02731,-43.02725 l0,-61.23119 l43.02731,-43.0273 l61.23112,0 l43.02731,43.0273 zm-72.81543,-203.55206 l41.37241,84.39936 l-41.37241,41.37259 l-41.37239,-41.37259 l41.37239,-84.39936 zm-178.72878,165.48945 l21.51365,-21.51366 l67.85075,-67.8509 l21.51364,-21.51349 l18.20387,-18.20352 l-11.58427,23.16805 l-13.23918,28.1334 l-21.51364,44.68219 l-46.33727,23.16856 l-28.13307,13.23915 l-21.51381,11.58429 l13.23933,-14.89407 l0,0 zm-56.26647,67.85074 l82.74482,-39.71751 l39.7175,39.71751 l-39.7175,39.71753 l-82.74482,-39.71753 zm165.48961,178.72879 l-21.51364,-21.51367 l-67.85091,-67.85071 l-21.51332,-21.51367 l-16.54896,-16.54895 l21.51332,11.58429 l28.13356,13.23914 l46.33693,23.16855 l21.51364,44.68222 l13.23918,28.13324 l11.58426,23.16855 l-14.89406,-16.54898 l0,0 zm69.50563,56.26648 l-41.37239,-84.39972 l41.37239,-41.37241 l41.37241,41.37241 l-41.37241,84.39972 zm177.07391,-167.14453 l-21.51367,21.51199 l-67.85074,67.85239 l-21.51364,21.51367 l-18.20386,18.20386 l11.58429,-23.16855 l13.23914,-28.13324 l23.16855,-47.99197 l43.02731,-21.51367 l28.13324,-13.23914 l28.13321,-13.2392 l-18.20383,18.20386 l0,0 l0,0 zm-28.13324,-28.13321 l-39.7175,-39.71753 l39.7175,-39.71751 l79.435,39.71751 l-79.435,39.71753 z"
              id="logo"/>
      </g>
    </g>
    <g class="" id="svg_7" fill="#4b5257" fill-opacity="1">
      <g id="svg_9" fill="#4b5257" fill-opacity="1">
        <path fill="#4b5257"
              d="m480.64528937496186,190.31304438358308 l-21.51364,-21.51366 l-67.85074,-67.85107 l-21.51367,-21.51349 l-79.435,-79.43484 l-21.51364,0 l-79.43504,79.43484 l-21.51364,21.51349 l-67.85075,67.85107 l-21.51366,21.51366 l-77.78011,77.78014 l0,21.51364 l77.78011,77.78012 l21.51366,21.51364 l67.85075,67.85074 l21.51364,21.51364 l79.43504,79.43503 l21.51364,0 l79.435,-79.43503 l21.51367,-21.51364 l67.85074,-67.85074 l21.51364,-21.51364 l77.78012,-77.78012 l0,-21.51364 l-77.78012,-77.78014 zm-130.73679,-89.36473 l21.51364,21.51349 l67.85074,67.85124 l21.51364,21.51364 l19.85876,19.85876 l-28.13324,-13.23918 l-28.13324,-13.23917 l-43.02728,-21.51364 l-23.16855,-47.99281 l-13.2392,-28.13242 l-11.58426,-23.16888 l16.54898,16.54897 l0,0 zm4.96466,147.28609 l0,61.23119 l-43.02731,43.02725 l-61.23112,0 l-43.02731,-43.02725 l0,-61.23119 l43.02731,-43.0273 l61.23112,0 l43.02731,43.0273 zm-72.81543,-203.55206 l41.37241,84.39936 l-41.37241,41.37259 l-41.37239,-41.37259 l41.37239,-84.39936 zm-178.72878,165.48945 l21.51365,-21.51366 l67.85075,-67.8509 l21.51364,-21.51349 l18.20387,-18.20352 l-11.58427,23.16805 l-13.23918,28.1334 l-21.51364,44.68219 l-46.33727,23.16856 l-28.13307,13.23915 l-21.51381,11.58429 l13.23933,-14.89407 l0,0 zm-56.26647,67.85074 l82.74482,-39.71751 l39.7175,39.71751 l-39.7175,39.71753 l-82.74482,-39.71753 zm165.48961,178.72879 l-21.51364,-21.51367 l-67.85091,-67.85071 l-21.51332,-21.51367 l-16.54896,-16.54895 l21.51332,11.58429 l28.13356,13.23914 l46.33693,23.16855 l21.51364,44.68222 l13.23918,28.13324 l11.58426,23.16855 l-14.89406,-16.54898 l0,0 zm69.50563,56.26648 l-41.37239,-84.39972 l41.37239,-41.37241 l41.37241,41.37241 l-41.37241,84.39972 zm177.07391,-167.14453 l-21.51367,21.51199 l-67.85074,67.85239 l-21.51364,21.51367 l-18.20386,18.20386 l11.58429,-23.16855 l13.23914,-28.13324 l23.16855,-47.99197 l43.02731,-21.51367 l28.13324,-13.23914 l28.13321,-13.2392 l-18.20383,18.20386 l0,0 l0,0 zm-28.13324,-28.13321 l-39.7175,-39.71753 l39.7175,-39.71751 l79.435,39.71751 l-79.435,39.71753 z"
              id="logo" fill-opacity="1"/>
      </g>
    </g>
    <g class="" id="svg_15" fill-opacity="1" fill="#ff284d">
      <g id="svg_17" fill="#ff284d">
        <path fill="#ff284d"
              d="m480.6452915207291,1306.8933288598632 l-21.51364,-21.51366 l-67.85074,-67.85107 l-21.51367,-21.51349 l-79.435,-79.43484 l-21.51364,0 l-79.43504,79.43484 l-21.51364,21.51349 l-67.85075,67.85107 l-21.51366,21.51366 l-77.78011,77.78014 l0,21.51364 l77.78011,77.78012 l21.51366,21.51364 l67.85075,67.85074 l21.51364,21.51364 l79.43504,79.43503 l21.51364,0 l79.435,-79.43503 l21.51367,-21.51364 l67.85074,-67.85074 l21.51364,-21.51364 l77.78012,-77.78012 l0,-21.51364 l-77.78012,-77.78014 zm-130.73679,-89.36473 l21.51364,21.51349 l67.85074,67.85124 l21.51364,21.51364 l19.85876,19.85876 l-28.13324,-13.23918 l-28.13324,-13.23917 l-43.02728,-21.51364 l-23.16855,-47.99281 l-13.2392,-28.13242 l-11.58426,-23.16888 l16.54898,16.54897 l0,0 zm4.96466,147.28609 l0,61.23119 l-43.02731,43.02725 l-61.23112,0 l-43.02731,-43.02725 l0,-61.23119 l43.02731,-43.0273 l61.23112,0 l43.02731,43.0273 zm-72.81543,-203.55206 l41.37241,84.39936 l-41.37241,41.37259 l-41.37239,-41.37259 l41.37239,-84.39936 zm-178.72878,165.48945 l21.51365,-21.51366 l67.85075,-67.8509 l21.51364,-21.51349 l18.20387,-18.20352 l-11.58427,23.16805 l-13.23918,28.1334 l-21.51364,44.68219 l-46.33727,23.16856 l-28.13307,13.23915 l-21.51381,11.58429 l13.23933,-14.89407 l0,0 zm-56.26647,67.85074 l82.74482,-39.71751 l39.7175,39.71751 l-39.7175,39.71753 l-82.74482,-39.71753 zm165.48961,178.72879 l-21.51364,-21.51367 l-67.85091,-67.85071 l-21.51332,-21.51367 l-16.54896,-16.54895 l21.51332,11.58429 l28.13356,13.23914 l46.33693,23.16855 l21.51364,44.68222 l13.23918,28.13324 l11.58426,23.16855 l-14.89406,-16.54898 l0,0 zm69.50563,56.26648 l-41.37239,-84.39972 l41.37239,-41.37241 l41.37241,41.37241 l-41.37241,84.39972 zm177.07391,-167.14453 l-21.51367,21.51199 l-67.85074,67.85239 l-21.51364,21.51367 l-18.20386,18.20386 l11.58429,-23.16855 l13.23914,-28.13324 l23.16855,-47.99197 l43.02731,-21.51367 l28.13324,-13.23914 l28.13321,-13.2392 l-18.20383,18.20386 l0,0 l0,0 zm-28.13324,-28.13321 l-39.7175,-39.71753 l39.7175,-39.71751 l79.435,39.71751 l-79.435,39.71753 z"
              id="logo"/>
      </g>
    </g>
    <g class="" id="svg_11">
      <g id="svg_13">
        <path fill="#ff5b77"
              d="m479.9198959604645,1865.2353597426986 l-21.51364,-21.51366 l-67.85074,-67.85107 l-21.51367,-21.51349 l-79.435,-79.43484 l-21.51364,0 l-79.43504,79.43484 l-21.51364,21.51349 l-67.85075,67.85107 l-21.51366,21.51366 l-77.78011,77.78014 l0,21.51364 l77.78011,77.78012 l21.51366,21.51364 l67.85075,67.85074 l21.51364,21.51364 l79.43504,79.43503 l21.51364,0 l79.435,-79.43503 l21.51367,-21.51364 l67.85074,-67.85074 l21.51364,-21.51364 l77.78012,-77.78012 l0,-21.51364 l-77.78012,-77.78014 zm-130.73679,-89.36473 l21.51364,21.51349 l67.85074,67.85124 l21.51364,21.51364 l19.85876,19.85876 l-28.13324,-13.23918 l-28.13324,-13.23917 l-43.02728,-21.51364 l-23.16855,-47.99281 l-13.2392,-28.13242 l-11.58426,-23.16888 l16.54898,16.54897 l0,0 zm4.96466,147.28609 l0,61.23119 l-43.02731,43.02725 l-61.23112,0 l-43.02731,-43.02725 l0,-61.23119 l43.02731,-43.0273 l61.23112,0 l43.02731,43.0273 zm-72.81543,-203.55206 l41.37241,84.39936 l-41.37241,41.37259 l-41.37239,-41.37259 l41.37239,-84.39936 zm-178.72878,165.48945 l21.51365,-21.51366 l67.85075,-67.8509 l21.51364,-21.51349 l18.20387,-18.20352 l-11.58427,23.16805 l-13.23918,28.1334 l-21.51364,44.68219 l-46.33727,23.16856 l-28.13307,13.23915 l-21.51381,11.58429 l13.23933,-14.89407 l0,0 zm-56.26647,67.85074 l82.74482,-39.71751 l39.7175,39.71751 l-39.7175,39.71753 l-82.74482,-39.71753 zm165.48961,178.72879 l-21.51364,-21.51367 l-67.85091,-67.85071 l-21.51332,-21.51367 l-16.54896,-16.54895 l21.51332,11.58429 l28.13356,13.23914 l46.33693,23.16855 l21.51364,44.68222 l13.23918,28.13324 l11.58426,23.16855 l-14.89406,-16.54898 l0,0 zm69.50563,56.26648 l-41.37239,-84.39972 l41.37239,-41.37241 l41.37241,41.37241 l-41.37241,84.39972 zm177.07391,-167.14453 l-21.51367,21.51199 l-67.85074,67.85239 l-21.51364,21.51367 l-18.20386,18.20386 l11.58429,-23.16855 l13.23914,-28.13324 l23.16855,-47.99197 l43.02731,-21.51367 l28.13324,-13.23914 l28.13321,-13.2392 l-18.20383,18.20386 l0,0 l0,0 zm-28.13324,-28.13321 l-39.7175,-39.71753 l39.7175,-39.71751 l79.435,39.71751 l-79.435,39.71753 z"
              id="logo"/>
      </g>
    </g>
  </g>
</svg>
